<svg width="166" height="38" viewBox="0 0 166 38" fill="none" xmlns="http://www.w3.org/2000/svg">
<path d="M165.675 25.9249H162.121L156.802 20.779L151.583 25.925H148.028L155.087 19.1133L148.028 12.252H151.583L165.675 25.9249ZM165.675 12.252L159.76 18.0195L157.97 16.4285L162.121 12.252H165.675Z" fill="#F0F0F0"/>
<path d="M146.204 25.9249H138.076C137.132 25.9249 136.245 25.7508 135.417 25.4028C134.605 25.0382 133.884 24.541 133.255 23.9112C132.641 23.2814 132.161 22.5605 131.813 21.7484C131.465 20.9197 131.291 20.0331 131.291 19.0884C131.291 18.1437 131.465 17.2653 131.813 16.4533C132.161 15.6246 132.641 14.8954 133.255 14.2656C133.884 13.6358 134.605 13.1469 135.417 12.7989C136.245 12.4343 137.132 12.252 138.076 12.252H146.204V14.7379H138.076C137.281 14.7379 136.56 14.9368 135.914 15.3346C135.268 15.7323 134.746 16.2627 134.348 16.9256C133.967 17.572 133.776 18.2929 133.776 19.0884C133.776 19.8839 133.967 20.6131 134.348 21.2761C134.746 21.9224 135.268 22.4445 135.914 22.8422C136.56 23.24 137.281 23.4389 138.076 23.4389H146.204V25.9249Z" fill="#F0F0F0"/>
<path d="M129.718 16.6024C129.718 17.3979 129.52 18.1272 129.122 18.7901C128.741 19.453 128.219 19.9834 127.556 20.3811C126.91 20.7623 126.181 20.9529 125.369 20.9529H115.849C116.197 21.6821 116.711 22.2787 117.39 22.7428C118.086 23.2068 118.865 23.4389 119.727 23.4389H127.854V25.9249H119.727C118.782 25.9249 117.896 25.7508 117.067 25.4028C116.255 25.0382 115.535 24.541 114.905 23.9112C114.292 23.2814 113.811 22.5605 113.463 21.7484C113.115 20.9197 112.941 20.0331 112.941 19.0884C112.941 18.1437 113.115 17.2653 113.463 16.4533C113.811 15.6246 114.292 14.8954 114.905 14.2656C115.535 13.6358 116.255 13.1469 117.067 12.7989C117.896 12.4343 118.782 12.252 119.727 12.252H125.369C126.181 12.252 126.91 12.4508 127.556 12.8486C128.219 13.2298 128.741 13.7518 129.122 14.4148C129.52 15.0611 129.718 15.7903 129.718 16.6024ZM125.369 18.4669C125.882 18.4669 126.322 18.2846 126.686 17.92C127.051 17.5554 127.233 17.1162 127.233 16.6024C127.233 16.0886 127.051 15.6495 126.686 15.2848C126.322 14.9202 125.882 14.7379 125.369 14.7379H119.727C118.998 14.7379 118.327 14.9037 117.714 15.2351C117.117 15.5666 116.62 16.0141 116.222 16.5776C115.825 17.141 115.576 17.7708 115.477 18.4669H125.369Z" fill="#F0F0F0"/>
<path d="M111.644 25.9251H111.022C110.227 25.9251 109.498 25.7345 108.835 25.3534C108.172 24.9556 107.642 24.4335 107.245 23.7872C106.863 23.1243 106.673 22.3868 106.673 21.5747V7.28027H109.158V21.5747C109.158 22.0884 109.341 22.5276 109.705 22.8922C110.07 23.2568 110.509 23.4392 111.022 23.4392H111.644V25.9251Z" fill="#F0F0F0"/>
<path d="M104.068 19.0884C104.068 20.0331 103.894 20.9197 103.546 21.7484C103.198 22.5605 102.709 23.2814 102.079 23.9112C101.466 24.541 100.746 25.0382 99.917 25.4028C99.1051 25.7508 98.2269 25.9249 97.2824 25.9249H91.6901V23.4389H97.2824C98.0778 23.4223 98.7986 23.2234 99.4448 22.8422C100.108 22.4445 100.63 21.9224 101.011 21.2761C101.392 20.6131 101.582 19.8839 101.582 19.0884C101.582 18.2929 101.392 17.5637 101.011 16.9007C100.63 16.2378 100.108 15.7158 99.4448 15.3346C98.7986 14.9368 98.0778 14.7379 97.2824 14.7379H90.4474V30.7192H87.9619L87.9619 12.252H97.2824C98.2269 12.252 99.1051 12.4343 99.917 12.7989C100.746 13.1469 101.466 13.6358 102.079 14.2656C102.709 14.8954 103.198 15.6246 103.546 16.4533C103.894 17.2653 104.068 18.1437 104.068 19.0884Z" fill="#F0F0F0"/>
<path d="M67.2189 25.9249H64.7334V12.252H77.8318C78.7763 12.252 79.6545 12.4343 80.4664 12.7989C81.2949 13.1469 82.0157 13.6358 82.6288 14.2656C83.2585 14.8954 83.7473 15.6246 84.0952 16.4533C84.4432 17.2653 84.6172 18.1437 84.6172 19.0884V25.9249H82.1317V19.0884C82.1317 18.2929 81.9412 17.572 81.5601 16.9256C81.1789 16.2627 80.657 15.7323 79.9942 15.3346C79.348 14.9368 78.6272 14.7379 77.8318 14.7379H75.918V25.9249H73.4326V14.7379H67.2189V25.9249Z" fill="#F0F0F0"/>
<path d="M61.7722 9.14476C61.7722 9.65853 61.5899 10.0977 61.2254 10.4623C60.8608 10.8269 60.4217 11.0092 59.9081 11.0092C59.3944 11.0092 58.9553 10.8269 58.5907 10.4623C58.2262 10.0977 58.0439 9.65853 58.0439 9.14476C58.0439 8.63099 58.2262 8.1918 58.5907 7.82719C58.9553 7.46258 59.3944 7.28027 59.9081 7.28027C60.4217 7.28027 60.8608 7.46258 61.2254 7.82719C61.5899 8.1918 61.7722 8.63099 61.7722 9.14476ZM61.1508 25.9251H58.6653V12.2522H61.1508V25.9251Z" fill="url(#paint0_linear_1965_8788)"/>
<path d="M56.1111 21.5744C56.1111 22.3865 55.9122 23.124 55.5146 23.7869C55.1335 24.4333 54.6115 24.9553 53.9487 25.3531C53.3025 25.7343 52.5734 25.9249 51.7615 25.9249H41.1982V23.4389H51.7615C52.2752 23.4389 52.7143 23.2566 53.0788 22.892C53.4433 22.5273 53.6256 22.0882 53.6256 21.5744C53.6256 21.0606 53.4433 20.6214 53.0788 20.2568C52.7143 19.8922 52.2752 19.7099 51.7615 19.7099H44.9265C44.2471 19.7099 43.6174 19.5442 43.0375 19.2127C42.4741 18.8812 42.0267 18.4338 41.6953 17.8703C41.3639 17.2902 41.1982 16.6604 41.1982 15.9809C41.1982 15.2848 41.3639 14.6551 41.6953 14.0916C42.0267 13.5281 42.4741 13.0806 43.0375 12.7491C43.6174 12.4177 44.2471 12.252 44.9265 12.252H54.8683V14.7379H44.9265C44.5785 14.7379 44.2802 14.8622 44.0317 15.1108C43.7997 15.3429 43.6837 15.6329 43.6837 15.9809C43.6837 16.329 43.7997 16.6273 44.0317 16.8759C44.2802 17.1079 44.5785 17.2239 44.9265 17.2239H51.7615C52.5734 17.2239 53.3025 17.4228 53.9487 17.8206C54.6115 18.2017 55.1335 18.7238 55.5146 19.3867C55.9122 20.0331 56.1111 20.7623 56.1111 21.5744Z" fill="#F0F0F0"/>
<path d="M162.831 7.28027H163.242L164.207 9.63863H164.24L165.206 7.28027H165.616V10.1214H165.294V7.96281H165.267L164.379 10.1214H164.068L163.181 7.96281H163.153V10.1214H162.831V7.28027Z" fill="#F0F0F0"/>
<path d="M160.17 7.58547V7.28027H162.3V7.58547H161.407V10.1214H161.063V7.58547H160.17Z" fill="#F0F0F0"/>
<path d="M15.2058 0.490329C16.345 -0.163443 17.7485 -0.163443 18.8877 0.490328L32.2525 8.1604C33.3917 8.81417 34.0935 10.0224 34.0935 11.3299V26.6701C34.0935 27.9776 33.3917 29.1858 32.2525 29.8396L18.8877 37.5097C17.7485 38.1634 16.345 38.1634 15.2058 37.5097L1.84094 29.8396C0.701762 29.1858 0 27.9776 0 26.6701V11.3299C0 10.0224 0.701761 8.81417 1.84094 8.1604L15.2058 0.490329Z" fill="url(#paint1_linear_1965_8788)"/>
<path fill-rule="evenodd" clip-rule="evenodd" d="M22.1574 24.8192L11.1762 13.8381C10.6871 13.349 9.89413 13.349 9.40504 13.8381C8.91595 14.3271 8.91595 15.1201 9.40504 15.6092L20.3862 26.5904C20.8753 27.0795 21.6683 27.0795 22.1574 26.5904C22.6465 26.1013 22.6465 25.3083 22.1574 24.8192ZM8.69658 13.1296C7.81622 14.01 7.81622 15.4373 8.69658 16.3177L19.6777 27.2988C20.5581 28.1792 21.9855 28.1792 22.8658 27.2988C23.7462 26.4185 23.7462 24.9911 22.8658 24.1108L11.8847 13.1296C11.0043 12.2492 9.57694 12.2492 8.69658 13.1296Z" fill="#F0F0F0"/>
<path fill-rule="evenodd" clip-rule="evenodd" d="M11.2765 24.212L22.2576 13.2309C22.7467 12.7418 22.7467 11.9488 22.2576 11.4597C21.7686 10.9706 20.9756 10.9706 20.4865 11.4597L9.50533 22.4409C9.01624 22.93 9.01623 23.723 9.50533 24.2121C9.99442 24.7011 10.7874 24.7011 11.2765 24.212ZM22.9661 10.7513C22.0857 9.8709 20.6584 9.8709 19.778 10.7513L8.79686 21.7324C7.9165 22.6128 7.9165 24.0401 8.79686 24.9205C9.67723 25.8009 11.1046 25.8009 11.9849 24.9205L22.9661 13.9393C23.8465 13.059 23.8465 11.6316 22.9661 10.7513Z" fill="#F0F0F0"/>
<path fill-rule="evenodd" clip-rule="evenodd" d="M24.6369 22.3407L13.6557 11.3595C13.1666 10.8704 12.3736 10.8704 11.8845 11.3595C11.3954 11.8486 11.3954 12.6416 11.8845 13.1307L22.8657 24.1119C23.3548 24.601 24.1478 24.601 24.6369 24.1119C25.1259 23.6228 25.1259 22.8298 24.6369 22.3407ZM11.1761 10.6511C10.2957 11.5314 10.2957 12.9588 11.1761 13.8392L22.1572 24.8203C23.0376 25.7007 24.465 25.7007 25.3453 24.8203C26.2257 23.94 26.2257 22.5126 25.3453 21.6322L14.3642 10.6511C13.4838 9.77071 12.0564 9.77071 11.1761 10.6511Z" fill="#F0F0F0"/>
<path fill-rule="evenodd" clip-rule="evenodd" d="M13.756 26.6915L24.7371 15.7104C25.2262 15.2213 25.2262 14.4283 24.7371 13.9392C24.248 13.4501 23.4551 13.4501 22.966 13.9392L11.9848 24.9204C11.4957 25.4095 11.4957 26.2025 11.9848 26.6915C12.4739 27.1806 13.2669 27.1806 13.756 26.6915ZM25.4456 13.2308C24.5652 12.3504 23.1379 12.3504 22.2575 13.2308L11.2764 24.2119C10.396 25.0923 10.396 26.5196 11.2764 27.4C12.1567 28.2804 13.5841 28.2804 14.4644 27.4L25.4456 16.4188C26.326 15.5385 26.326 14.1111 25.4456 13.2308Z" fill="#F0F0F0"/>
<defs>
<linearGradient id="paint0_linear_1965_8788" x1="59.5382" y1="6.0373" x2="72.3281" y2="20.7035" gradientUnits="userSpaceOnUse">
<stop stop-color="#EA0022"/>
<stop offset="1" stop-color="#754DE8"/>
</linearGradient>
<linearGradient id="paint1_linear_1965_8788" x1="-1.46864" y1="-30.875" x2="38.4533" y2="-28.2127" gradientUnits="userSpaceOnUse">
<stop stop-color="#EA0022"/>
<stop offset="1" stop-color="#754DE8"/>
</linearGradient>
</defs>
</svg>
